<svg width="198" height="198" viewBox="0 0 198 198" fill="none" xmlns="http://www.w3.org/2000/svg">
<g clip-path="url(#clip0_309_9572)">
<path d="M0 99C0 153.676 44.3238 198 99 198C153.676 198 198 153.676 198 99C198 44.3238 153.676 0 99 0C44.3238 0 0 44.3238 0 99Z" fill="#F2F5F9"/>
<path d="M130.233 59.607C126.58 62.7429 122.374 65.0253 118.125 67.1881C104.116 74.317 89.5068 79.7941 73.9509 82.4346C65.556 83.8594 57.1142 84.4707 48.8263 81.7304C41.4214 79.2821 36.9775 74.1604 35.4707 66.508C34.589 62.0307 34.841 57.565 35.5799 53.0998C36.5465 47.6912 37.9757 42.3756 39.8517 37.2116C40.6575 34.8998 40.6989 34.9288 42.3209 36.7532C49.4596 44.7802 57.9174 50.9789 67.9565 54.8956C83.1579 60.8267 98.5386 60.655 113.959 55.87C128.456 51.3713 140.794 43.3389 151.393 32.5604C153.088 30.835 153.073 30.8364 155.085 32.1947C157.608 33.9477 159.656 36.2983 161.048 39.0364C161.633 40.1281 161.556 41.0396 160.87 42.1215C152.582 55.2162 144.013 68.1237 135.005 80.7346C125.29 94.3395 115.29 107.735 104.636 120.631C103.27 122.252 102.039 123.983 100.957 125.807C102.607 124.96 104.232 124.068 105.905 123.27C116.079 118.422 126.633 114.849 137.965 114.047C142.653 113.716 147.308 113.964 151.822 115.526C158.989 118.006 163.137 123.04 164.676 130.378C166.078 137.054 165.236 143.627 163.901 150.192C162.695 155.968 160.922 161.611 158.607 167.039C158.607 166.653 158.592 166.267 158.609 165.882C158.898 159.031 157.985 152.4 155.391 145.993C150.158 133.065 137.335 125.175 123.279 126.223C112.606 127.019 103.331 131.307 94.6401 137.205C86.4138 142.785 79.6836 149.939 73.1598 157.334C71.0166 159.764 71.8416 159.717 69.3126 157.618C66.9906 155.691 65.1207 153.334 63.3789 150.876C62.7501 149.99 62.7229 149.316 63.4301 148.39C74.2268 134.274 85.0003 120.14 95.7505 105.988C106.955 91.2803 118.163 76.5756 129.375 61.8733C129.776 61.3475 130.159 60.8093 130.551 60.2768C130.774 60.1145 130.92 59.8862 130.774 59.6391C130.658 59.4398 130.421 59.5392 130.233 59.607Z" fill="#232574"/>
<path d="M112.544 74.3346C103.844 81.9973 94.7903 89.1802 84.5639 94.7492C77.3275 98.69 69.7932 101.837 61.4804 102.593C52.7246 103.39 44.9607 101.284 39.134 94.2769C34.815 89.083 33.0339 82.8924 32.5755 76.2607C32.527 76.0718 32.5305 75.8733 32.5854 75.6862C32.6403 75.4991 32.7448 75.3303 32.8876 75.1976C34.2125 77.6017 35.7372 79.8123 37.8448 81.5559C42.875 85.7179 48.8213 87.5967 55.1662 88.3574C67.0872 89.7845 78.5784 87.6501 89.8465 83.9274C97.5062 81.3627 104.893 78.0465 111.9 74.0274C112.31 73.7224 112.537 73.7995 112.544 74.3346Z" fill="#E3B349"/>
</g>
<defs>
<clipPath id="clip0_309_9572">
<rect width="198" height="198" fill="white"/>
</clipPath>
</defs>
</svg>
